<svg xmlns="http://www.w3.org/2000/svg" width="46" height="48" viewBox="0 0 46 48" fill="none"><path opacity="0.6" d="M41.5861 37.1927L40.0338 45.1983C39.7722 46.5588 38.5687 47.5704 37.1908 47.5704H2.90099C0.999869 47.5704 -0.378011 45.739 0.092908 43.8902C1.34869 39.2682 2.58703 34.6288 3.84282 30.0068C3.35446 31.8556 4.73234 33.687 6.65089 33.687H39.5629L39.6152 33.7219L40.3826 34.2625C41.3245 34.9253 41.8128 36.059 41.5861 37.2101V37.1927Z" fill="#77EADB"></path><path d="M45.336 23.327L43.7838 31.3152C43.5221 32.7105 42.3187 33.6698 40.9408 33.6698H39.5629L11.9357 14.3795C10.4881 13.3854 8.53462 13.8912 7.74976 15.3737L11.2729 2.17052C11.7962 0.217081 14.081 -0.637548 15.7205 0.531028L44.1151 20.3271C45.057 20.9898 45.5453 22.1584 45.3186 23.2921L45.336 23.327Z" fill="#77EADB"></path><path d="M39.5629 33.6872H6.65086C4.74975 33.6872 3.37187 31.8558 3.84279 30.007L7.57526 16.0713L7.74967 15.3911C8.51709 13.9086 10.4705 13.4028 11.9182 14.3969L11.9531 14.4318L39.528 33.6872H39.5629Z" fill="#44E2C1"></path></svg>